# xmcd CD database file
#
# Track frame offsets:
#	150
#	12205
#	31788
#	45299
#	56581
#	70286
#	88789
#	101264
#	116862
#	130115
#	146914
#	160194
#	178266
#	193762
#	207449
#	221279
#	241061
#	260695
#	274128
#	285480
#	310098
#
# Disc length: 4312 seconds
#
# Revision: 0
# Processed by: cddbd v1.5.1PL2 Copyright (c) Steve Scherf et al.
# Submitted via: CDex 1.51
#
DISCID=3010d615
DTITLE=0416-Gary Alan - Gary Alan - Special
DYEAR=1990
DGENRE=Country
TTITLE0=All I'm Gonna Be Is Her Man
TTITLE1=Allright guy
TTITLE2=Cowboy Blues
TTITLE3=Devils Candy
TTITLE4=Don't Look Back - Gary Allan
TTITLE5=From Where I'm Sitting
TTITLE6=Her Man
TTITLE7=Highway Junkie
TTITLE8=If It Was A Drink
TTITLE9=I'm Doin' My Best
TTITLE10=It Would Be You
TTITLE11=Lovin' You Against My Will
TTITLE12=Man of Me
TTITLE13=Red Lips, Blue Eyes, Little Wh
TTITLE14=Right Where I Need To Be
TTITLE15=Smoke Rings In The Dark
TTITLE16=The One
TTITLE17=I'll Take Today
TTITLE18=Used Heart For Sale
TTITLE19=What Would Willie Do
TTITLE20=What's on My Mind
EXTD=YEAR: 1990
EXTT0=
EXTT1=
EXTT2=
EXTT3=
EXTT4=
EXTT5=
EXTT6=
EXTT7=
EXTT8=
EXTT9=
EXTT10=
EXTT11=
EXTT12=
EXTT13=
EXTT14=
EXTT15=
EXTT16=
EXTT17=
EXTT18=
EXTT19=
EXTT20=
PLAYORDER=
